<svg xmlns="http://www.w3.org/2000/svg" xmlns:xlink="http://www.w3.org/1999/xlink" width="500" zoomAndPan="magnify" viewBox="0 0 375 374.999991" height="500" preserveAspectRatio="xMidYMid meet" version="1.0"><defs><clipPath id="e644a68ec1"><path d="M 7.691406 7.691406 L 366.925781 7.691406 L 366.925781 366.925781 L 7.691406 366.925781 Z M 7.691406 7.691406 " clip-rule="nonzero"/></clipPath><clipPath id="49aa45fc9e"><path d="M 21.699219 48 L 366.925781 48 L 366.925781 366.925781 L 21.699219 366.925781 Z M 21.699219 48 " clip-rule="nonzero"/></clipPath></defs><g clip-path="url(#e644a68ec1)"><path fill="#343434" d="M 366.933594 187.320312 C 366.933594 286.511719 286.515625 366.925781 187.296875 366.925781 C 88.105469 366.925781 7.691406 286.511719 7.691406 187.320312 C 7.691406 163.980469 12.128906 141.6875 20.230469 121.242188 C 46.539062 54.738281 111.417969 7.6875 187.296875 7.6875 C 188.917969 7.6875 190.511719 7.710938 192.109375 7.734375 C 289.109375 10.304688 366.933594 89.722656 366.933594 187.320312 " fill-opacity="1" fill-rule="nonzero"/></g><g clip-path="url(#49aa45fc9e)"><path fill="#202020" d="M 366.921875 187.320312 C 366.921875 286.511719 286.507812 366.925781 187.292969 366.925781 C 113.058594 366.925781 49.347656 321.894531 21.972656 257.660156 C 53.9375 291.050781 98.945312 311.820312 148.816406 311.820312 C 245.8125 311.820312 324.460938 233.203125 324.460938 136.203125 C 324.460938 104.0625 315.832031 73.941406 300.769531 48.054688 C 341.140625 80.996094 366.921875 131.140625 366.921875 187.320312 " fill-opacity="1" fill-rule="nonzero"/></g><path fill="#444444" d="M 266.429688 120.792969 C 266.429688 188.753906 211.300781 243.882812 143.308594 243.882812 C 94.347656 243.882812 52.054688 215.277344 32.246094 173.867188 C 25.011719 158.75 24.382812 141.167969 30.550781 125.585938 C 30.585938 125.511719 30.613281 125.433594 30.644531 125.359375 C 56.230469 60.675781 117.71875 18.886719 187.3125 18.886719 C 188.851562 18.886719 190.394531 18.914062 191.933594 18.945312 C 192.054688 18.949219 192.171875 18.949219 192.292969 18.953125 C 209 19.457031 224.8125 27.042969 235.84375 39.597656 C 254.886719 61.265625 266.429688 89.691406 266.429688 120.792969 " fill-opacity="1" fill-rule="nonzero"/><path fill="#c4d5dc" d="M 303.535156 179.199219 C 303.535156 230.398438 262.03125 271.902344 210.832031 271.902344 C 159.628906 271.902344 118.125 230.398438 118.125 179.199219 C 118.125 128 159.628906 86.492188 210.832031 86.492188 C 262.03125 86.492188 303.535156 128 303.535156 179.199219 " fill-opacity="1" fill-rule="nonzero"/><path fill="#bdc4c6" d="M 118.125 179.195312 C 118.125 179.191406 118.125 179.191406 118.125 179.1875 C 118.125 170.257812 119.390625 161.621094 121.75 153.449219 C 119.390625 161.625 118.125 170.265625 118.125 179.199219 " fill-opacity="1" fill-rule="nonzero"/><path fill="#dde8ec" d="M 144.433594 243.875 C 128.152344 227.167969 118.128906 204.351562 118.125 179.195312 C 118.125 170.265625 119.390625 161.625 121.75 153.449219 C 132.910156 114.785156 168.578125 86.507812 210.835938 86.507812 C 231.183594 86.507812 250.007812 93.066406 265.292969 104.1875 C 266.042969 109.597656 266.417969 115.15625 266.417969 120.792969 C 266.417969 188.394531 211.90625 243.296875 144.433594 243.875 " fill-opacity="1" fill-rule="nonzero"/><path fill="#343434" d="M 211.292969 187.695312 C 226.007812 187.898438 230.371094 192.328125 232.289062 198.898438 C 234.460938 206.335938 230.21875 212.789062 221.476562 215.347656 C 216.839844 216.699219 212.570312 216.367188 209.128906 214.378906 C 206.164062 212.664062 204.066406 209.808594 203.152344 206.082031 C 200.566406 197.230469 206.59375 191.023438 211.292969 187.695312 Z M 208.609375 165.355469 C 195.898438 165.257812 192.882812 160.6875 191.703125 156.648438 C 190.234375 151.625 191.757812 145.347656 200.445312 142.808594 C 210.664062 139.820312 213.957031 146.984375 214.898438 150.207031 C 216.917969 157.125 212.351562 162.375 208.609375 165.355469 Z M 234.054688 168.175781 C 241.3125 157.636719 240.152344 147.535156 238.480469 141.816406 C 234.109375 126.863281 217.824219 115.191406 195.144531 121.816406 C 174.066406 127.980469 162.710938 145.945312 168.140625 164.535156 C 170.707031 173.3125 176.859375 179.984375 185.550781 183.699219 C 177.914062 193.078125 175.507812 203.996094 178.785156 215.199219 C 183.507812 231.371094 201.6875 243.832031 227.28125 236.351562 C 250.140625 229.671875 262.484375 210.300781 256.636719 190.285156 C 253.429688 179.308594 245.554688 171.683594 234.054688 168.175781 " fill-opacity="1" fill-rule="nonzero"/><path fill="#202020" d="M 256.644531 190.289062 C 255.496094 186.347656 253.726562 182.832031 251.40625 179.789062 C 246.21875 189.265625 239.8125 197.992188 232.429688 205.722656 C 231.308594 209.835938 227.84375 213.203125 222.53125 214.996094 C 213.679688 222.480469 203.753906 228.710938 193.007812 233.425781 C 201.585938 238.585938 213.332031 240.433594 227.292969 236.339844 C 250.136719 229.683594 262.476562 210.308594 256.644531 190.289062 " fill-opacity="1" fill-rule="nonzero"/><path fill="#737373" d="M 59.960938 151.429688 C 55.308594 151.429688 51.507812 150.175781 48.863281 147.535156 C 37.371094 136.042969 52.179688 102.605469 81.933594 72.847656 C 104.851562 49.933594 129.949219 35.882812 145.527344 35.882812 C 150.179688 35.882812 153.980469 37.132812 156.621094 39.777344 C 168.113281 51.269531 153.308594 84.707031 123.550781 114.464844 C 100.636719 137.378906 75.535156 151.429688 59.960938 151.429688 " fill-opacity="1" fill-rule="nonzero"/></svg>